<svg xmlns="http://www.w3.org/2000/svg" width="700" height="460">
<style>text{font-family:Arial,sans-serif} .axis{stroke:#111;stroke-width:2} .grid{stroke:#ddd;stroke-width:1} .sleep{stroke:#1f77b4;fill:#1f77b4} .wake{stroke:#d62728;fill:#d62728}</style>
<text x="350.0" y="28" text-anchor="middle" font-size="20">Interaction of Sleep and Cue on Recall Score</text>
<line class="grid" x1="90" y1="380.0" x2="660" y2="380.0"/>
<text x="80" y="384.0" text-anchor="end" font-size="12">13</text>
<line class="grid" x1="90" y1="352.5" x2="660" y2="352.5"/>
<text x="80" y="356.5" text-anchor="end" font-size="12">15</text>
<line class="grid" x1="90" y1="325.0" x2="660" y2="325.0"/>
<text x="80" y="329.0" text-anchor="end" font-size="12">17</text>
<line class="grid" x1="90" y1="297.5" x2="660" y2="297.5"/>
<text x="80" y="301.5" text-anchor="end" font-size="12">19</text>
<line class="grid" x1="90" y1="270.0" x2="660" y2="270.0"/>
<text x="80" y="274.0" text-anchor="end" font-size="12">21</text>
<line class="grid" x1="90" y1="242.5" x2="660" y2="242.5"/>
<text x="80" y="246.5" text-anchor="end" font-size="12">23</text>
<line class="grid" x1="90" y1="215.0" x2="660" y2="215.0"/>
<text x="80" y="219.0" text-anchor="end" font-size="12">25</text>
<line class="grid" x1="90" y1="187.5" x2="660" y2="187.5"/>
<text x="80" y="191.5" text-anchor="end" font-size="12">27</text>
<line class="grid" x1="90" y1="160.0" x2="660" y2="160.0"/>
<text x="80" y="164.0" text-anchor="end" font-size="12">29</text>
<line class="grid" x1="90" y1="132.5" x2="660" y2="132.5"/>
<text x="80" y="136.5" text-anchor="end" font-size="12">31</text>
<line class="grid" x1="90" y1="105.0" x2="660" y2="105.0"/>
<text x="80" y="109.0" text-anchor="end" font-size="12">33</text>
<line class="grid" x1="90" y1="77.5" x2="660" y2="77.5"/>
<text x="80" y="81.5" text-anchor="end" font-size="12">35</text>
<line class="grid" x1="90" y1="50.0" x2="660" y2="50.0"/>
<text x="80" y="54.0" text-anchor="end" font-size="12">37</text>
<line class="axis" x1="90" y1="50" x2="90" y2="380"/>
<line class="axis" x1="90" y1="380" x2="660" y2="380"/>
<text x="90" y="410" text-anchor="middle" font-size="13">Control</text>
<text x="660" y="410" text-anchor="middle" font-size="13">TMR</text>
<text x="350.0" y="440" text-anchor="middle" font-size="14">Cue Condition</text>
<text x="25" y="230.0" transform="rotate(-90,25,230.0)" text-anchor="middle" font-size="14">Recall Score</text>
<polyline class="sleep" fill="none" stroke-width="3" points="90.0,194.5 660.0,148.3"/>
<polyline class="wake" fill="none" stroke-width="3" points="90.0,262.0 660.0,221.4"/>
<circle class="sleep" cx="90.0" cy="194.5" r="5"/>
<circle class="sleep" cx="660.0" cy="148.3" r="5"/>
<rect class="wake" x="85.0" y="257.0" width="10" height="10"/>
<rect class="wake" x="655.0" y="216.4" width="10" height="10"/>
<line class="sleep" x1="510" y1="60" x2="540" y2="60" stroke-width="3"/>
<circle class="sleep" cx="525" cy="60" r="5"/>
<text x="550" y="64" font-size="13">Sleep</text>
<line class="wake" x1="510" y1="84" x2="540" y2="84" stroke-width="3"/>
<rect class="wake" x="520" y="79" width="10" height="10"/>
<text x="550" y="88" font-size="13">Wake</text>
</svg>